# xmcd
#
# Track frame offsets:
#	150
#	3613
#	20603
#	32769
#	43231
#	58528
#	63943
#	78307
#	85354
#	110262
#	114799
#	149845
#	154582
#	172139
#	184653
#	206660
#	210471
#	220006
#
# Disc length: 2981 seconds
#
# Revision: 1
# Processed by: cddbd v1.5.2PL0 Copyright (c) Steve Scherf et al.
# Submitted via: audiograbber 1.83.01
#
DISCID=fa0ba312
DTITLE=Robert Earl Keen - Marfa After Dark
DYEAR=2008
DGENRE=Country
TTITLE0=Show Intro (Chloe and Robert)
TTITLE1=Jessee with the Long Hair Hanging Down
TTITLE2=Willie
TTITLE3=Marty and Bill Intro (talking)
TTITLE4=Ride
TTITLE5=Border Intro (talking)
TTITLE6=A Border Tragedy
TTITLE7=The Annux (talking)
TTITLE8=Long Chain
TTITLE9=Rich Intro (talking)
TTITLE10=Lonely Feeling
TTITLE11=Tom Intro (talking)
TTITLE12=Mariano
TTITLE13=A Joke (talking)
TTITLE14=The Great Hank
TTITLE15=Panhandle Intro (talking)
TTITLE16=Panhandle Rag
TTITLE17=(applause)
EXTD=Recorded live @ Ballroom Marfa in Marfa, Texas.
EXTT0=
EXTT1=
EXTT2=
EXTT3=
EXTT4=
EXTT5=
EXTT6=
EXTT7=
EXTT8=
EXTT9=
EXTT10=
EXTT11=
EXTT12=
EXTT13=
EXTT14=
EXTT15=
EXTT16=
EXTT17=
PLAYORDER=
